<?xml version="1.0" encoding="utf-8"?>
<!-- Generator: Adobe Illustrator 25.4.1, SVG Export Plug-In . SVG Version: 6.00 Build 0)  -->
<svg version="1.1" id="Layer_1" xmlns="http://www.w3.org/2000/svg" xmlns:xlink="http://www.w3.org/1999/xlink" x="0px" y="0px"
	 viewBox="0 0 100 100" style="enable-background:new 0 0 100 100;" xml:space="preserve">
<style type="text/css">
	.st0{opacity:0;fill:#1A1A1A;}
	.st1{opacity:0.0417;fill:#1A1A1A;}
	.st2{opacity:0.0833;fill:#1A1A1A;}
	.st3{opacity:0.125;fill:#1A1A1A;}
	.st4{opacity:0.1667;fill:#1A1A1A;}
	.st5{opacity:0.2083;fill:#1A1A1A;}
	.st6{opacity:0.25;fill:#1A1A1A;}
	.st7{fill:url(#XMLID_00000111171266846111039210000006354895044841107074_);}
	.st8{fill:url(#XMLID_00000047771754629269023170000017043390390128681896_);}
	.st9{fill:url(#XMLID_00000090285297416251932800000015049266748285136318_);}
	.st10{fill:url(#XMLID_00000083797996745803637190000007831361391592051600_);}
	.st11{fill:url(#XMLID_00000041286077785649842930000016054662591651531924_);}
	.st12{fill:url(#XMLID_00000129190510967485435960000016174815196710463641_);}
	.st13{fill:url(#XMLID_00000011006543837758233680000004142816190025283501_);}
	.st14{fill:#6D6C6F;}
</style>
<g id="XMLID_508_">
	<g id="XMLID_518_">
		<g id="XMLID_519_">
			<g id="XMLID_522_">
				<path id="XMLID_00000089566967341220754050000000962576263346602383_" class="st0" d="M98.08,54.16
					c0,24.25-19.66,43.91-43.91,43.91c-24.25,0-43.91-19.66-43.91-43.91c0-24.26,19.66-43.91,43.91-43.91
					C78.41,10.25,98.08,29.91,98.08,54.16z"/>
				<path class="st1" d="M96.94,52.9c0,24.32-19.72,44.04-44.04,44.04c-24.32,0-44.04-19.72-44.04-44.04
					c0-24.32,19.72-44.04,44.04-44.04C77.22,8.86,96.94,28.58,96.94,52.9z"/>
				<path class="st2" d="M95.81,51.64c0,24.39-19.78,44.16-44.17,44.16c-24.39,0-44.16-19.77-44.16-44.16
					c0-24.39,19.77-44.17,44.16-44.17C76.03,7.48,95.81,27.25,95.81,51.64z"/>
				<path class="st3" d="M94.67,50.38c0,24.46-19.83,44.29-44.29,44.29c-24.46,0-44.29-19.83-44.29-44.29
					c0-24.46,19.83-44.29,44.29-44.29C74.84,6.09,94.67,25.92,94.67,50.38z"/>
				<path class="st4" d="M93.53,49.12c0,24.53-19.89,44.42-44.42,44.42C24.58,93.53,4.7,73.65,4.7,49.12
					C4.7,24.58,24.58,4.7,49.12,4.7C73.65,4.7,93.53,24.58,93.53,49.12z"/>
				<path class="st5" d="M92.4,47.86c0,24.6-19.95,44.54-44.54,44.54c-24.6,0-44.54-19.94-44.54-44.54
					c0-24.6,19.94-44.54,44.54-44.54C72.45,3.31,92.4,23.25,92.4,47.86z"/>
				<path id="XMLID_00000147934941107386436330000001397033769530215864_" class="st6" d="M91.26,46.59
					c0,24.67-20,44.67-44.67,44.67c-24.67,0-44.67-20-44.67-44.67c0-24.67,20-44.67,44.67-44.67C71.26,1.92,91.26,21.92,91.26,46.59
					z"/>
			</g>
			
				<linearGradient id="XMLID_00000027580473839663894790000000521546328952872350_" gradientUnits="userSpaceOnUse" x1="15.0063" y1="15.0066" x2="78.1787" y2="78.179">
				<stop  offset="0" style="stop-color:#FFFFFF"/>
				<stop  offset="1" style="stop-color:#ABABAB"/>
			</linearGradient>
			<path id="XMLID_521_" style="fill:url(#XMLID_00000027580473839663894790000000521546328952872350_);" d="M91.26,46.59
				c0,24.67-20,44.67-44.67,44.67c-24.67,0-44.67-20-44.67-44.67c0-24.67,20-44.67,44.67-44.67C71.26,1.92,91.26,21.92,91.26,46.59z
				"/>
			
				<linearGradient id="XMLID_00000090988469553716162330000014497035992545703358_" gradientUnits="userSpaceOnUse" x1="16.0777" y1="16.0778" x2="77.1074" y2="77.1076">
				<stop  offset="0.0871" style="stop-color:#FFFFFF"/>
				<stop  offset="1" style="stop-color:#D9D9D9"/>
			</linearGradient>
			<path id="XMLID_520_" style="fill:url(#XMLID_00000090988469553716162330000014497035992545703358_);" d="M89.75,46.59
				c0,23.83-19.32,43.15-43.16,43.15c-23.83,0-43.16-19.32-43.16-43.15c0-23.83,19.32-43.16,43.16-43.16
				C70.42,3.44,89.75,22.76,89.75,46.59z"/>
		</g>
	</g>
	<g id="XMLID_509_">
		<g id="XMLID_513_">
			
				<linearGradient id="XMLID_00000168111596058141184070000015870821419432653184_" gradientUnits="userSpaceOnUse" x1="23.5656" y1="42.3495" x2="43.766" y2="42.3495">
				<stop  offset="0.3273" style="stop-color:#00A8CF"/>
				<stop  offset="0.7212" style="stop-color:#00B1DB"/>
			</linearGradient>
			<path id="XMLID_517_" style="fill:url(#XMLID_00000168111596058141184070000015870821419432653184_);" d="M40.05,36.87
				c1.32-0.17,2.47-0.71,3.18-2.23c0.56-1.2,0.53-3.01,0.11-4.26c-1.45-4.28-6.39-7.47-10.85-7.52c-3.92-0.05-7.49,2.95-8.37,6.76
				c-1.96,8.43,1.48,18.72,7.21,25.05c1.54,1.71,3.56,3.47,5.58,4.59c2.15,1.19,4.46,2.06,6.86,2.61c-4.8-1.09-8.85-4.47-11.1-8.82
				c-1.87-3.6-3.13-8.55-1.78-12.52c0.53-1.56,1.88-2.98,3.48-3.41C36.2,36.6,38.18,37.11,40.05,36.87z"/>
			
				<linearGradient id="XMLID_00000128457770582165335640000011666524021026722194_" gradientUnits="userSpaceOnUse" x1="37.5221" y1="20.1709" x2="45.4324" y2="20.1709">
				<stop  offset="0.3273" style="stop-color:#00A8CF"/>
				<stop  offset="0.7212" style="stop-color:#00B1DB"/>
			</linearGradient>
			<path id="XMLID_516_" style="fill:url(#XMLID_00000128457770582165335640000011666524021026722194_);" d="M45.39,20.73
				c-0.31,2.16-2.32,3.66-4.48,3.35c-2.16-0.31-3.66-2.31-3.35-4.48c0.31-2.16,2.32-3.66,4.48-3.35
				C44.2,16.57,45.7,18.57,45.39,20.73z"/>
			
				<linearGradient id="XMLID_00000074437906652887447310000001440515107984438186_" gradientUnits="userSpaceOnUse" x1="49.4208" y1="42.3495" x2="69.6212" y2="42.3495">
				<stop  offset="0.3273" style="stop-color:#FAB661"/>
				<stop  offset="0.7212" style="stop-color:#F8C113"/>
			</linearGradient>
			<path id="XMLID_515_" style="fill:url(#XMLID_00000074437906652887447310000001440515107984438186_);" d="M53.14,36.87
				c-1.32-0.17-2.47-0.71-3.18-2.23c-0.56-1.2-0.53-3.01-0.11-4.26c1.45-4.28,6.39-7.47,10.85-7.52c3.92-0.05,7.48,2.95,8.37,6.76
				c1.96,8.43-1.48,18.72-7.21,25.05c-1.54,1.71-3.56,3.47-5.58,4.59c-2.15,1.19-4.46,2.06-6.86,2.61c4.8-1.09,8.85-4.47,11.1-8.82
				c1.87-3.6,3.13-8.55,1.78-12.52c-0.53-1.56-1.87-2.98-3.48-3.41C56.99,36.6,55,37.11,53.14,36.87z"/>
			
				<linearGradient id="XMLID_00000015341043081948050540000011592766541244218503_" gradientUnits="userSpaceOnUse" x1="47.7529" y1="20.1709" x2="55.666" y2="20.1709">
				<stop  offset="0.3273" style="stop-color:#FAB661"/>
				<stop  offset="0.7212" style="stop-color:#F8C113"/>
			</linearGradient>
			<path id="XMLID_514_" style="fill:url(#XMLID_00000015341043081948050540000011592766541244218503_);" d="M47.79,20.73
				c0.31,2.16,2.32,3.66,4.48,3.35c2.16-0.31,3.66-2.31,3.35-4.48c-0.31-2.16-2.32-3.66-4.48-3.35
				C48.98,16.57,47.48,18.57,47.79,20.73z"/>
		</g>
		
			<linearGradient id="XMLID_00000072963354900439602730000011674829344578736306_" gradientUnits="userSpaceOnUse" x1="23.7926" y1="72.3518" x2="69.3942" y2="72.3518">
			<stop  offset="0" style="stop-color:#FFFFFF;stop-opacity:0"/>
			<stop  offset="0.1277" style="stop-color:#C7C9CB;stop-opacity:0.2553"/>
			<stop  offset="0.254" style="stop-color:#9A9C9F;stop-opacity:0.5079"/>
			<stop  offset="0.362" style="stop-color:#7D7E81;stop-opacity:0.724"/>
			<stop  offset="0.4476" style="stop-color:#6A6B6E;stop-opacity:0.8951"/>
			<stop  offset="0.5" style="stop-color:#636466"/>
			<stop  offset="0.5524" style="stop-color:#6A6B6E;stop-opacity:0.8951"/>
			<stop  offset="0.638" style="stop-color:#7D7E81;stop-opacity:0.724"/>
			<stop  offset="0.746" style="stop-color:#9A9C9F;stop-opacity:0.5079"/>
			<stop  offset="0.8723" style="stop-color:#C7C9CB;stop-opacity:0.2553"/>
			<stop  offset="1" style="stop-color:#FFFFFF;stop-opacity:0"/>
		</linearGradient>
		
			<rect id="XMLID_512_" x="23.79" y="72.28" style="fill:url(#XMLID_00000072963354900439602730000011674829344578736306_);" width="45.6" height="0.14"/>
		<g>
			<path class="st14" d="M28.22,64.92v5.99c0,0.2-0.06,0.33-0.18,0.4c-0.12,0.06-0.29,0.09-0.52,0.09c-0.22,0-0.39-0.03-0.51-0.09
				c-0.12-0.06-0.18-0.19-0.18-0.4v-5.99h-3.14c-0.17,0-0.28-0.05-0.33-0.14c-0.05-0.09-0.08-0.23-0.08-0.42s0.03-0.33,0.08-0.42
				c0.05-0.09,0.16-0.14,0.33-0.14h7.68c0.17,0,0.28,0.05,0.33,0.14c0.05,0.09,0.08,0.23,0.08,0.42s-0.03,0.33-0.08,0.42
				c-0.05,0.09-0.16,0.14-0.33,0.14H28.22z"/>
			<path class="st14" d="M35.01,63.76c0.2,0,0.37,0.03,0.5,0.09c0.13,0.06,0.23,0.15,0.32,0.27l4.55,6.49
				c0.05,0.08,0.07,0.16,0.07,0.24c0,0.08-0.02,0.15-0.07,0.22c-0.05,0.07-0.1,0.13-0.18,0.18c-0.07,0.05-0.15,0.09-0.25,0.11
				c-0.09,0.03-0.18,0.04-0.27,0.04c-0.1,0-0.18-0.02-0.26-0.05c-0.08-0.03-0.14-0.09-0.2-0.16l-1.23-1.79h-5.8l-1.16,1.79
				c-0.05,0.08-0.11,0.13-0.19,0.16c-0.08,0.03-0.17,0.05-0.26,0.05c-0.08,0-0.17-0.01-0.26-0.04c-0.09-0.03-0.17-0.07-0.25-0.12
				c-0.07-0.05-0.13-0.11-0.18-0.18c-0.05-0.07-0.07-0.14-0.07-0.22c0-0.07,0.02-0.15,0.07-0.23l4.28-6.49
				c0.08-0.12,0.18-0.21,0.31-0.27C34.63,63.79,34.8,63.76,35.01,63.76z M32.91,68.27h4.31l-2.21-3.24L32.91,68.27z"/>
			<path class="st14" d="M42.45,66.86l5.5-2.96c0.1-0.06,0.2-0.09,0.32-0.11c0.11-0.02,0.29-0.03,0.53-0.03
				c0.15,0,0.29,0.04,0.4,0.12c0.11,0.08,0.17,0.2,0.17,0.36c0,0.21-0.11,0.37-0.33,0.48l-5.57,2.81l5.76,2.92
				c0.22,0.11,0.33,0.27,0.33,0.48c0,0.16-0.06,0.28-0.17,0.36c-0.11,0.08-0.24,0.12-0.4,0.12c-0.24,0-0.41-0.01-0.53-0.03
				c-0.11-0.02-0.22-0.06-0.32-0.11l-5.69-3.01v2.67c0,0.2-0.06,0.33-0.18,0.4c-0.12,0.06-0.29,0.09-0.52,0.09
				c-0.22,0-0.39-0.03-0.51-0.09c-0.12-0.06-0.18-0.19-0.18-0.4v-6.67c0-0.2,0.06-0.33,0.18-0.4c0.12-0.06,0.29-0.09,0.51-0.09
				c0.23,0,0.4,0.03,0.52,0.09c0.12,0.06,0.18,0.19,0.18,0.4V66.86z"/>
			<path class="st14" d="M53.09,71.35c-2.06,0-3.09-0.65-3.09-1.94v-5.17c0-0.2,0.06-0.33,0.18-0.4c0.12-0.06,0.29-0.09,0.51-0.09
				c0.23,0,0.4,0.03,0.52,0.09c0.12,0.06,0.18,0.19,0.18,0.4v5.17c0,0.22,0.14,0.41,0.41,0.57c0.27,0.16,0.72,0.24,1.33,0.24h3.13
				c0.61,0,1.06-0.08,1.33-0.24c0.27-0.16,0.41-0.35,0.41-0.57v-5.17c0-0.2,0.06-0.33,0.18-0.4c0.12-0.06,0.29-0.09,0.52-0.09
				c0.22,0,0.39,0.03,0.51,0.09c0.12,0.06,0.18,0.19,0.18,0.4v5.17c0,1.29-1.03,1.94-3.09,1.94H53.09z"/>
			<path class="st14" d="M69.78,69.19c0,0.45-0.09,0.81-0.27,1.09c-0.18,0.28-0.41,0.5-0.69,0.66c-0.29,0.16-0.61,0.26-0.99,0.32
				c-0.37,0.06-0.75,0.09-1.13,0.09h-5.89c-0.32,0-0.48-0.16-0.48-0.49v-6.59c0-0.32,0.16-0.48,0.48-0.48h5.81
				c0.45,0,0.87,0.03,1.24,0.09s0.7,0.18,0.97,0.34c0.27,0.16,0.48,0.38,0.63,0.66c0.15,0.28,0.22,0.64,0.22,1.07
				c0,0.37-0.07,0.69-0.2,0.96c-0.14,0.27-0.39,0.5-0.76,0.68c0.32,0.12,0.58,0.3,0.77,0.54C69.68,68.37,69.78,68.73,69.78,69.19z
				 M68.36,69.23c0-0.2-0.02-0.37-0.06-0.51c-0.04-0.14-0.13-0.25-0.25-0.34c-0.13-0.09-0.3-0.15-0.53-0.19
				c-0.23-0.04-0.52-0.06-0.88-0.06h-4.92v2.1h5.07c0.34,0,0.62-0.02,0.82-0.06c0.21-0.04,0.37-0.1,0.48-0.18
				c0.11-0.08,0.18-0.18,0.22-0.31C68.34,69.56,68.36,69.41,68.36,69.23z M61.75,66.99h4.97c0.31,0,0.57-0.01,0.78-0.04
				c0.21-0.03,0.38-0.08,0.51-0.15c0.13-0.07,0.22-0.18,0.27-0.31c0.05-0.14,0.08-0.31,0.08-0.54c0-0.18-0.02-0.34-0.06-0.47
				c-0.04-0.13-0.12-0.24-0.23-0.32c-0.11-0.08-0.28-0.14-0.49-0.18c-0.21-0.04-0.48-0.06-0.8-0.06h-5.02V66.99z"/>
		</g>
		<g>
			<path class="st14" d="M23.93,73.46h0.13v1.57l0.61-1.57h0.14l-0.47,1.23l0.49,1.77H24.7l-0.44-1.58l-0.19,0.46v1.12h-0.13V73.46z
				"/>
			<path class="st14" d="M25.78,73.46h0.88v0.14h-0.75v1.25h0.67v0.14h-0.67v1.34h0.75v0.14h-0.88V73.46z"/>
			<path class="st14" d="M27.6,73.46h0.88v0.14h-0.75v1.25h0.67v0.14h-0.67v1.34h0.75v0.14H27.6V73.46z"/>
			<path class="st14" d="M29.42,73.46h0.48c0.03,0,0.06,0.02,0.1,0.05c0.04,0.03,0.09,0.08,0.13,0.15c0.04,0.07,0.08,0.15,0.11,0.26
				c0.03,0.1,0.05,0.22,0.05,0.36c0,0.14-0.01,0.27-0.04,0.38c-0.02,0.11-0.06,0.2-0.09,0.27c-0.04,0.07-0.08,0.12-0.13,0.16
				c-0.05,0.03-0.09,0.05-0.13,0.05h-0.34v1.33h-0.13V73.46z M29.84,74.99c0.07,0,0.13-0.02,0.17-0.07c0.04-0.05,0.07-0.1,0.09-0.17
				c0.02-0.07,0.03-0.15,0.04-0.23c0.01-0.08,0.02-0.16,0.02-0.23c-0.01-0.08-0.01-0.16-0.03-0.24c-0.01-0.08-0.03-0.15-0.06-0.22
				c-0.03-0.07-0.06-0.12-0.1-0.16c-0.04-0.04-0.1-0.06-0.16-0.06h-0.26v1.39H29.84z"/>
			<path class="st14" d="M31.23,73.46h0.14v3h-0.14V73.46z"/>
			<path class="st14" d="M32.32,76.46v-3h0.15l0.6,2.49v-2.49h0.13v3h-0.14l-0.6-2.48v2.48H32.32z"/>
			<path class="st14" d="M34.32,76.25c0.03,0.05,0.09,0.07,0.19,0.07h0.19c0.07,0,0.12-0.02,0.15-0.07c0.03-0.04,0.04-0.11,0.04-0.2
				v-0.97h-0.26v-0.14h0.4v1.23c0,0.07-0.02,0.14-0.06,0.19c-0.04,0.06-0.1,0.09-0.18,0.09h-0.38c-0.09-0.01-0.16-0.04-0.2-0.11
				c-0.04-0.07-0.06-0.14-0.06-0.21v-2.36c0-0.08,0.02-0.16,0.07-0.22c0.05-0.07,0.11-0.1,0.19-0.1h0.36
				c0.08,0.01,0.14,0.04,0.19,0.1c0.05,0.06,0.07,0.12,0.07,0.19v0.66h-0.13v-0.55c0-0.09-0.01-0.15-0.03-0.2
				c-0.02-0.04-0.07-0.07-0.15-0.07h-0.27c-0.05,0-0.08,0.02-0.12,0.07s-0.05,0.11-0.05,0.19v2.2
				C34.27,76.14,34.28,76.21,34.32,76.25z"/>
			<path class="st14" d="M37.62,76.25c0.03,0.05,0.09,0.07,0.18,0.07h0.21c0.07,0,0.12-0.02,0.15-0.07c0.02-0.04,0.03-0.11,0.03-0.2
				v-0.55h0.13v0.65c0,0.07-0.02,0.14-0.06,0.2c-0.04,0.06-0.1,0.09-0.18,0.1h-0.39c-0.09-0.01-0.16-0.04-0.2-0.11
				c-0.04-0.07-0.06-0.14-0.06-0.21v-2.36c0-0.08,0.02-0.16,0.07-0.22c0.05-0.07,0.11-0.1,0.19-0.1h0.36
				c0.08,0.01,0.14,0.04,0.19,0.1c0.05,0.06,0.07,0.12,0.07,0.19v0.66h-0.13v-0.55c0-0.09-0.01-0.15-0.03-0.2
				c-0.02-0.04-0.07-0.06-0.15-0.06h-0.27c-0.05,0-0.08,0.02-0.12,0.07s-0.05,0.11-0.05,0.19v2.2
				C37.57,76.14,37.59,76.21,37.62,76.25z"/>
			<path class="st14" d="M39.44,76.25c0.03,0.05,0.09,0.07,0.19,0.07h0.2c0.07,0,0.12-0.02,0.15-0.07c0.02-0.04,0.03-0.11,0.03-0.2
				v-2.6h0.13v2.71c0,0.07-0.02,0.14-0.06,0.2c-0.04,0.06-0.1,0.09-0.18,0.1h-0.39c-0.09-0.01-0.16-0.04-0.2-0.11
				c-0.04-0.07-0.06-0.14-0.06-0.21v-2.68h0.13v2.6C39.39,76.14,39.41,76.21,39.44,76.25z"/>
			<path class="st14" d="M41.22,73.86v0.82c0,0.05,0.01,0.1,0.02,0.13c0.01,0.03,0.06,0.05,0.13,0.05h0.38
				c0.02,0,0.04,0.01,0.06,0.02c0.03,0.01,0.05,0.03,0.07,0.04s0.04,0.04,0.06,0.07c0.02,0.03,0.02,0.05,0.02,0.09v1.08
				c0,0.08-0.02,0.15-0.06,0.22s-0.11,0.1-0.2,0.1h-0.36c-0.08-0.01-0.14-0.04-0.19-0.1c-0.05-0.06-0.07-0.12-0.07-0.19v-0.66h0.13
				v0.55c0,0.09,0.01,0.15,0.03,0.2c0.02,0.04,0.07,0.06,0.15,0.06h0.27c0.06,0,0.1-0.02,0.13-0.07c0.02-0.05,0.04-0.11,0.04-0.19
				v-0.9c0-0.06-0.01-0.1-0.04-0.13c-0.02-0.03-0.07-0.04-0.15-0.04h-0.33c-0.05,0-0.1-0.02-0.15-0.05
				c-0.05-0.03-0.08-0.09-0.08-0.17v-0.99c0-0.08,0.02-0.15,0.06-0.22c0.04-0.06,0.11-0.1,0.2-0.1h0.36
				c0.08,0.01,0.14,0.04,0.19,0.1c0.05,0.06,0.07,0.12,0.07,0.19v0.66h-0.13v-0.55c0-0.09-0.01-0.15-0.03-0.2
				c-0.02-0.04-0.07-0.07-0.15-0.07h-0.27c-0.07,0-0.11,0.02-0.13,0.07S41.22,73.78,41.22,73.86z"/>
			<path class="st14" d="M43.79,73.46v0.14h-0.38v2.86h-0.14V73.6H42.9v-0.14H43.79z"/>
			<path class="st14" d="M45.61,76.16c0,0.07-0.02,0.14-0.06,0.2c-0.04,0.06-0.1,0.09-0.18,0.1h-0.39c-0.09-0.01-0.16-0.04-0.2-0.11
				c-0.04-0.07-0.06-0.14-0.06-0.21v-2.36c0-0.08,0.02-0.16,0.06-0.22c0.04-0.07,0.11-0.1,0.2-0.1h0.36
				c0.08,0.01,0.14,0.04,0.19,0.1c0.05,0.06,0.07,0.12,0.07,0.19V76.16z M44.9,76.25c0.03,0.05,0.09,0.07,0.18,0.07h0.22
				c0.07,0,0.12-0.02,0.15-0.07c0.02-0.04,0.03-0.11,0.03-0.2v-2.19c0-0.09-0.01-0.15-0.03-0.2c-0.02-0.04-0.07-0.07-0.15-0.07
				h-0.27c-0.05,0-0.08,0.02-0.12,0.07s-0.05,0.11-0.05,0.19v2.2C44.86,76.14,44.88,76.21,44.9,76.25z"/>
			<path class="st14" d="M47.44,76.46l-0.75-2.62v2.62h-0.14v-3h0.14l0.81,2.72l0.79-2.72h0.14v3H48.3v-2.62l-0.75,2.62H47.44z"/>
			<path class="st14" d="M49.37,73.46h0.88v0.14H49.5v1.25h0.67v0.14H49.5v1.34h0.75v0.14h-0.88V73.46z"/>
			<path class="st14" d="M51.2,73.46h0.48c0.04,0,0.09,0.02,0.13,0.06c0.05,0.04,0.09,0.1,0.13,0.17c0.04,0.07,0.07,0.16,0.09,0.26
				c0.02,0.1,0.04,0.21,0.04,0.34c0,0.24-0.03,0.43-0.09,0.57c-0.06,0.14-0.13,0.22-0.21,0.26c0.05,0.09,0.09,0.17,0.12,0.25
				c0.03,0.08,0.05,0.17,0.08,0.29l0.19,0.82h-0.16l-0.13-0.61c-0.03-0.14-0.06-0.25-0.08-0.34c-0.03-0.09-0.05-0.15-0.08-0.2
				c-0.03-0.05-0.05-0.09-0.07-0.11c-0.02-0.03-0.05-0.05-0.07-0.06h-0.23v1.33H51.2V73.46z M51.62,74.99
				c0.07,0,0.13-0.02,0.17-0.07c0.04-0.05,0.07-0.1,0.09-0.17c0.02-0.07,0.03-0.15,0.04-0.23c0.01-0.08,0.02-0.16,0.02-0.23
				c-0.01-0.08-0.01-0.16-0.02-0.24s-0.03-0.15-0.05-0.22c-0.03-0.07-0.06-0.12-0.1-0.16c-0.04-0.04-0.1-0.06-0.18-0.06h-0.25v1.39
				H51.62z"/>
			<path class="st14" d="M53.23,73.86v0.82c0,0.05,0.01,0.1,0.02,0.13c0.01,0.03,0.06,0.05,0.13,0.05h0.38
				c0.02,0,0.04,0.01,0.06,0.02c0.03,0.01,0.05,0.03,0.07,0.04c0.02,0.02,0.04,0.04,0.06,0.07c0.02,0.03,0.02,0.05,0.02,0.09v1.08
				c0,0.08-0.02,0.15-0.06,0.22c-0.04,0.06-0.11,0.1-0.2,0.1h-0.36c-0.08-0.01-0.14-0.04-0.19-0.1c-0.05-0.06-0.07-0.12-0.07-0.19
				v-0.66h0.13v0.55c0,0.09,0.01,0.15,0.03,0.2s0.07,0.06,0.15,0.06h0.27c0.06,0,0.1-0.02,0.13-0.07c0.02-0.05,0.04-0.11,0.04-0.19
				v-0.9c0-0.06-0.01-0.1-0.04-0.13s-0.07-0.04-0.15-0.04h-0.33c-0.05,0-0.1-0.02-0.15-0.05c-0.05-0.03-0.08-0.09-0.08-0.17v-0.99
				c0-0.08,0.02-0.15,0.06-0.22c0.04-0.06,0.11-0.1,0.2-0.1h0.36c0.08,0.01,0.14,0.04,0.19,0.1c0.05,0.06,0.07,0.12,0.07,0.19v0.66
				h-0.13v-0.55c0-0.09-0.01-0.15-0.03-0.2c-0.02-0.04-0.07-0.07-0.15-0.07h-0.27c-0.07,0-0.11,0.02-0.13,0.07
				C53.24,73.71,53.23,73.78,53.23,73.86z"/>
			<path class="st14" d="M56.4,73.46h0.14v3H56.4V73.46z"/>
			<path class="st14" d="M57.49,76.46v-3h0.15l0.6,2.49v-2.49h0.13v3h-0.14l-0.6-2.48v2.48H57.49z"/>
			<path class="st14" d="M61.68,73.46v0.14H61.3v2.86h-0.14V73.6h-0.38v-0.14H61.68z"/>
			<path class="st14" d="M63.5,76.16c0,0.07-0.02,0.14-0.06,0.2c-0.04,0.06-0.1,0.09-0.18,0.1h-0.39c-0.09-0.01-0.16-0.04-0.2-0.11
				c-0.04-0.07-0.06-0.14-0.06-0.21v-2.36c0-0.08,0.02-0.16,0.06-0.22c0.04-0.07,0.11-0.1,0.2-0.1h0.36
				c0.08,0.01,0.14,0.04,0.19,0.1c0.05,0.06,0.07,0.12,0.07,0.19V76.16z M62.79,76.25c0.03,0.05,0.09,0.07,0.18,0.07h0.22
				c0.07,0,0.12-0.02,0.15-0.07c0.02-0.04,0.03-0.11,0.03-0.2v-2.19c0-0.09-0.01-0.15-0.03-0.2c-0.02-0.04-0.07-0.07-0.15-0.07
				h-0.27c-0.05,0-0.08,0.02-0.12,0.07c-0.03,0.05-0.05,0.11-0.05,0.19v2.2C62.75,76.14,62.76,76.21,62.79,76.25z"/>
			<path class="st14" d="M64.62,76.25c0.03,0.05,0.09,0.07,0.19,0.07H65c0.07,0,0.12-0.02,0.15-0.07c0.02-0.04,0.03-0.11,0.03-0.2
				v-2.6h0.13v2.71c0,0.07-0.02,0.14-0.06,0.2c-0.04,0.06-0.1,0.09-0.18,0.1h-0.39c-0.09-0.01-0.16-0.04-0.2-0.11
				c-0.04-0.07-0.06-0.14-0.06-0.21v-2.68h0.13v2.6C64.57,76.14,64.59,76.21,64.62,76.25z"/>
			<path class="st14" d="M66.43,76.25c0.03,0.05,0.09,0.07,0.18,0.07h0.21c0.07,0,0.12-0.02,0.15-0.07c0.02-0.04,0.03-0.11,0.03-0.2
				v-0.55h0.13v0.65c0,0.07-0.02,0.14-0.06,0.2c-0.04,0.06-0.1,0.09-0.18,0.1h-0.39c-0.09-0.01-0.16-0.04-0.2-0.11
				c-0.04-0.07-0.06-0.14-0.06-0.21v-2.36c0-0.08,0.02-0.16,0.07-0.22c0.05-0.07,0.11-0.1,0.19-0.1h0.36
				c0.08,0.01,0.14,0.04,0.19,0.1s0.07,0.12,0.07,0.19v0.66H67v-0.55c0-0.09-0.01-0.15-0.03-0.2c-0.02-0.04-0.07-0.06-0.15-0.06
				h-0.27c-0.05,0-0.08,0.02-0.12,0.07c-0.03,0.05-0.05,0.11-0.05,0.19v2.2C66.39,76.14,66.4,76.21,66.43,76.25z"/>
			<path class="st14" d="M68.21,76.46h-0.13v-3h0.13v1.38h0.61v-1.38h0.13v3h-0.13v-1.48h-0.61V76.46z"/>
		</g>
	</g>
</g>
</svg>
